<?xml version="1.0" encoding="UTF-8"?>
<!DOCTYPE svg PUBLIC "-//W3C//DTD SVG 1.1//EN" "http://www.w3.org/Graphics/SVG/1.1/DTD/svg11.dtd">
<svg xmlns="http://www.w3.org/2000/svg" version="1.1" width="382px" height="359px" style="shape-rendering:geometricPrecision; text-rendering:geometricPrecision; image-rendering:optimizeQuality; fill-rule:evenodd; clip-rule:evenodd" xmlns:xlink="http://www.w3.org/1999/xlink">
<g><path style="opacity:1" fill="#56a993" d="M 147.5,22.5 C 153.351,21.674 158.684,22.8407 163.5,26C 161.998,26.5831 160.665,27.4164 159.5,28.5C 160,28.8333 160.5,29.1667 161,29.5C 165.306,27.4531 169.806,26.1198 174.5,25.5C 181.153,24.9457 187.82,24.6123 194.5,24.5C 201.799,24.3835 208.466,26.3835 214.5,30.5C 214.833,30.1667 215.167,29.8333 215.5,29.5C 214.019,28.5197 212.685,27.353 211.5,26C 212.167,25.3333 212.833,24.6667 213.5,24C 220.801,21.5615 227.801,22.2282 234.5,26C 236.79,27.7772 238.457,29.9438 239.5,32.5C 239.387,35.0488 240.054,37.3821 241.5,39.5C 240.909,41.85 239.909,44.0166 238.5,46C 239.102,47.563 239.935,47.3963 241,45.5C 243.282,53.6391 244.115,61.9725 243.5,70.5C 241.157,73.8399 238.824,77.1733 236.5,80.5C 238.184,83.1777 239.85,85.8444 241.5,88.5C 241.657,89.8734 241.49,91.2068 241,92.5C 239.844,91.0072 239.01,91.1739 238.5,93C 238.645,93.772 238.978,94.4387 239.5,95C 237.147,95.8834 235.313,97.3834 234,99.5C 232.374,98.9818 230.707,98.6484 229,98.5C 224.321,98.8286 219.821,99.6619 215.5,101C 208.5,101.333 201.5,101.667 194.5,102C 197.544,102.359 197.878,103.026 195.5,104C 191.5,104.167 187.5,104.333 183.5,104.5C 170.256,102.44 156.923,101.107 143.5,100.5C 142.536,97.9167 141.202,97.4167 139.5,99C 140.337,100.011 140.67,101.178 140.5,102.5C 138.516,102.617 136.85,101.95 135.5,100.5C 134.692,100.808 134.025,101.308 133.5,102C 137.769,104.639 142.436,106.139 147.5,106.5C 148.661,108.378 147.994,109.378 145.5,109.5C 139.695,108.006 134.029,106.34 128.5,104.5C 126.819,101.797 125.153,99.1305 123.5,96.5C 121.942,89.3394 123.442,88.6727 128,94.5C 131.942,90.1331 135.775,85.6331 139.5,81C 138.015,78.683 136.348,76.5164 134.5,74.5C 133.03,69.6129 132.363,64.2796 132.5,58.5C 133.179,48.9316 134.846,39.5982 137.5,30.5C 140.104,26.8718 143.437,24.2051 147.5,22.5 Z"/></g>
<g><path style="opacity:1" fill="#a9ddcf" d="M 143.5,26.5 C 144.5,26.5 145.5,26.5 146.5,26.5C 146.167,30.1667 144.167,32.1667 140.5,32.5C 140.028,29.6421 141.028,27.6421 143.5,26.5 Z"/></g>
<g><path style="opacity:1" fill="#529482" d="M 239.5,32.5 C 241.735,36.8091 243.235,41.4758 244,46.5C 244.823,54.6775 244.656,62.6775 243.5,70.5C 244.115,61.9725 243.282,53.6391 241,45.5C 239.935,47.3963 239.102,47.563 238.5,46C 239.909,44.0166 240.909,41.85 241.5,39.5C 240.054,37.3821 239.387,35.0488 239.5,32.5 Z"/></g>
<g><path style="opacity:1" fill="#569583" d="M 137.5,30.5 C 134.846,39.5982 133.179,48.9316 132.5,58.5C 132.363,64.2796 133.03,69.6129 134.5,74.5C 131.57,72.153 130.237,68.9863 130.5,65C 130.854,55.0624 132.021,45.229 134,35.5C 134.697,33.4156 135.864,31.7489 137.5,30.5 Z"/></g>
<g><path style="opacity:1" fill="#0b1d26" d="M 246.5,74.5 C 249.044,75.7079 250.378,77.7079 250.5,80.5C 248.674,78.8525 247.34,76.8525 246.5,74.5 Z"/></g>
<g><path style="opacity:1" fill="#0b5c6d" d="M 246.5,73.5 C 246.5,73.8333 246.5,74.1667 246.5,74.5C 247.34,76.8525 248.674,78.8525 250.5,80.5C 251.014,82.3664 251.68,84.1997 252.5,86C 251.312,87.9441 249.646,89.4441 247.5,90.5C 243.195,87.7281 240.362,84.0614 239,79.5C 241.145,76.8336 243.645,74.8336 246.5,73.5 Z"/></g>
<g><path style="opacity:1" fill="#0f1f1c" d="M 246.5,73.5 C 243.645,74.8336 241.145,76.8336 239,79.5C 240.362,84.0614 243.195,87.7281 247.5,90.5C 249.646,89.4441 251.312,87.9441 252.5,86C 251.68,84.1997 251.014,82.3664 250.5,80.5C 253.897,83.6861 255.23,87.6861 254.5,92.5C 254.312,106.253 251.145,119.253 245,131.5C 243.5,133 242,134.5 240.5,136C 235.008,138.579 229.675,141.412 224.5,144.5C 226.028,145.861 227.695,147.028 229.5,148C 231.141,149.129 232.141,150.629 232.5,152.5C 228.833,149.833 225.167,147.167 221.5,144.5C 222.167,143.833 222.833,143.167 223.5,142.5C 231.854,139.562 239.021,134.895 245,128.5C 250.652,116.393 252.819,103.726 251.5,90.5C 250.893,90.6236 250.56,90.9569 250.5,91.5C 249.855,92.8118 248.855,93.8118 247.5,94.5C 245.839,92.1728 243.839,90.1728 241.5,88.5C 239.85,85.8444 238.184,83.1777 236.5,80.5C 238.824,77.1733 241.157,73.8399 243.5,70.5C 244.656,62.6775 244.823,54.6775 244,46.5C 243.235,41.4758 241.735,36.8091 239.5,32.5C 238.457,29.9438 236.79,27.7772 234.5,26C 227.801,22.2282 220.801,21.5615 213.5,24C 212.833,24.6667 212.167,25.3333 211.5,26C 212.685,27.353 214.019,28.5197 215.5,29.5C 215.167,29.8333 214.833,30.1667 214.5,30.5C 208.466,26.3835 201.799,24.3835 194.5,24.5C 187.776,23.1961 181.109,23.5294 174.5,25.5C 169.806,26.1198 165.306,27.4531 161,29.5C 160.5,29.1667 160,28.8333 159.5,28.5C 160.665,27.4164 161.998,26.5831 163.5,26C 158.684,22.8407 153.351,21.674 147.5,22.5C 151.311,21.3547 155.311,21.1881 159.5,22C 162.053,23.3764 164.72,24.5431 167.5,25.5C 181.191,21.5756 194.858,21.5756 208.5,25.5C 220.081,17.9269 230.581,19.2602 240,29.5C 242.544,34.548 244.211,39.8813 245,45.5C 246.067,54.8045 246.567,64.1378 246.5,73.5 Z"/></g>
<g><path style="opacity:1" fill="#aeded2" d="M 218.5,23.5 C 224.892,24.1115 224.892,25.4448 218.5,27.5C 217.833,27.1667 217.167,26.8333 216.5,26.5C 217.193,25.4822 217.859,24.4822 218.5,23.5 Z"/></g>
<g><path style="opacity:1" fill="#3b6e5f" d="M 194.5,24.5 C 187.82,24.6123 181.153,24.9457 174.5,25.5C 181.109,23.5294 187.776,23.1961 194.5,24.5 Z"/></g>
<g><path style="opacity:1" fill="#53a38e" d="M 241.5,88.5 C 243.839,90.1728 245.839,92.1728 247.5,94.5C 248.855,93.8118 249.855,92.8118 250.5,91.5C 250.011,96.2865 247.678,100.453 243.5,104C 217.126,116.052 189.46,119.718 160.5,115C 152.108,113.577 143.775,111.91 135.5,110C 132.405,109.065 130.071,107.231 128.5,104.5C 134.029,106.34 139.695,108.006 145.5,109.5C 147.994,109.378 148.661,108.378 147.5,106.5C 142.436,106.139 137.769,104.639 133.5,102C 134.025,101.308 134.692,100.808 135.5,100.5C 136.85,101.95 138.516,102.617 140.5,102.5C 140.67,101.178 140.337,100.011 139.5,99C 141.202,97.4167 142.536,97.9167 143.5,100.5C 156.923,101.107 170.256,102.44 183.5,104.5C 187.5,104.333 191.5,104.167 195.5,104C 197.878,103.026 197.544,102.359 194.5,102C 201.5,101.667 208.5,101.333 215.5,101C 219.821,99.6619 224.321,98.8286 229,98.5C 230.707,98.6484 232.374,98.9818 234,99.5C 235.313,97.3834 237.147,95.8834 239.5,95C 238.978,94.4387 238.645,93.772 238.5,93C 239.01,91.1739 239.844,91.0072 241,92.5C 241.49,91.2068 241.657,89.8734 241.5,88.5 Z"/></g>
<g><path style="opacity:1" fill="#457363" d="M 250.5,91.5 C 250.56,90.9569 250.893,90.6236 251.5,90.5C 252.819,103.726 250.652,116.393 245,128.5C 239.021,134.895 231.854,139.562 223.5,142.5C 218.299,140.902 213.299,138.735 208.5,136C 189.462,130.009 171.462,132.175 154.5,142.5C 145.102,140.887 137.269,136.554 131,129.5C 125.822,119.121 123.322,108.121 123.5,96.5C 125.153,99.1305 126.819,101.797 128.5,104.5C 130.071,107.231 132.405,109.065 135.5,110C 143.775,111.91 152.108,113.577 160.5,115C 189.46,119.718 217.126,116.052 243.5,104C 247.678,100.453 250.011,96.2865 250.5,91.5 Z"/></g>
<g><path style="opacity:1" fill="#101f1c" d="M 147.5,22.5 C 143.437,24.2051 140.104,26.8718 137.5,30.5C 135.864,31.7489 134.697,33.4156 134,35.5C 132.021,45.229 130.854,55.0624 130.5,65C 130.237,68.9863 131.57,72.153 134.5,74.5C 136.348,76.5164 138.015,78.683 139.5,81C 135.775,85.6331 131.942,90.1331 128,94.5C 123.442,88.6727 121.942,89.3394 123.5,96.5C 123.322,108.121 125.822,119.121 131,129.5C 137.269,136.554 145.102,140.887 154.5,142.5C 153.5,143.167 152.5,143.833 151.5,144.5C 145.697,141.954 140.03,139.12 134.5,136C 127.991,129.162 124.157,120.996 123,111.5C 122.078,104.293 121.244,97.1261 120.5,90C 121.403,84.6929 123.736,80.1929 127.5,76.5C 128.703,62.4837 130.537,48.4837 133,34.5C 135.277,27.3884 140.11,23.3884 147.5,22.5 Z"/></g>
<g><path style="opacity:1" fill="#0a5c6c" d="M 127.5,76.5 C 128.712,75.7701 129.712,74.7701 130.5,73.5C 136.954,76.9934 137.787,81.3268 133,86.5C 129.017,92.145 125.85,91.8116 123.5,85.5C 125.1,82.6319 126.433,79.6319 127.5,76.5 Z"/></g>
<g><path style="opacity:1" fill="#616f27" d="M 221.5,144.5 C 225.167,147.167 228.833,149.833 232.5,152.5C 232.833,153.167 233.167,153.833 233.5,154.5C 231.275,153.076 228.775,152.409 226,152.5C 224.014,152.569 222.514,153.235 221.5,154.5C 219.999,153.248 218.332,152.248 216.5,151.5C 207.964,147.063 198.964,144.063 189.5,142.5C 189.5,139.833 189.5,137.167 189.5,134.5C 200.748,135.95 211.415,139.284 221.5,144.5 Z"/></g>
<g><path style="opacity:1" fill="#131a09" d="M 223.5,142.5 C 222.833,143.167 222.167,143.833 221.5,144.5C 211.415,139.284 200.748,135.95 189.5,134.5C 189.5,137.167 189.5,139.833 189.5,142.5C 198.964,144.063 207.964,147.063 216.5,151.5C 216.158,152.338 215.492,152.672 214.5,152.5C 206.84,147.949 198.507,145.616 189.5,145.5C 189.5,148.5 189.5,151.5 189.5,154.5C 189.5,157.5 189.5,160.5 189.5,163.5C 188.833,164.833 188.167,164.833 187.5,163.5C 187.5,157.5 187.5,151.5 187.5,145.5C 179.424,145.304 171.757,146.97 164.5,150.5C 163.833,150.5 163.5,150.167 163.5,149.5C 170.898,145.153 178.898,142.819 187.5,142.5C 187.5,139.833 187.5,137.167 187.5,134.5C 172.392,135.065 159.059,140.065 147.5,149.5C 148.3,147.427 149.633,145.76 151.5,144.5C 152.5,143.833 153.5,143.167 154.5,142.5C 171.462,132.175 189.462,130.009 208.5,136C 213.299,138.735 218.299,140.902 223.5,142.5 Z"/></g>
<g><path style="opacity:1" fill="#606d27" d="M 163.5,149.5 C 159.673,151.246 156.007,153.246 152.5,155.5C 152.5,154.5 152.5,153.5 152.5,152.5C 150.167,152.5 147.833,152.5 145.5,152.5C 146.167,151.5 146.833,150.5 147.5,149.5C 159.059,140.065 172.392,135.065 187.5,134.5C 187.5,137.167 187.5,139.833 187.5,142.5C 178.898,142.819 170.898,145.153 163.5,149.5 Z"/></g>
<g><path style="opacity:1" fill="#627224" d="M 186.5,154.5 C 176.781,154.218 167.114,154.551 157.5,155.5C 158.659,153.75 160.326,152.75 162.5,152.5C 167.499,151.734 172.499,150.9 177.5,150C 179.894,147.476 182.894,146.309 186.5,146.5C 186.5,149.167 186.5,151.833 186.5,154.5 Z"/></g>
<g><path style="opacity:1" fill="#586427" d="M 187.5,163.5 C 187.167,163.5 186.833,163.5 186.5,163.5C 186.5,160.5 186.5,157.5 186.5,154.5C 186.5,151.833 186.5,149.167 186.5,146.5C 182.894,146.309 179.894,147.476 177.5,150C 172.499,150.9 167.499,151.734 162.5,152.5C 163.167,151.833 163.833,151.167 164.5,150.5C 171.757,146.97 179.424,145.304 187.5,145.5C 187.5,151.5 187.5,157.5 187.5,163.5 Z"/></g>
<g><path style="opacity:1" fill="#637427" d="M 214.5,152.5 C 217.09,153.749 219.424,155.416 221.5,157.5C 211.09,154.764 200.424,153.764 189.5,154.5C 189.5,151.5 189.5,148.5 189.5,145.5C 198.507,145.616 206.84,147.949 214.5,152.5 Z"/></g>
<g><path style="opacity:1" fill="#2c3e16" d="M 147.5,149.5 C 146.833,150.5 146.167,151.5 145.5,152.5C 143.5,154.167 141.5,155.833 139.5,157.5C 141.167,153.833 143.833,151.167 147.5,149.5 Z"/></g>
<g><path style="opacity:1" fill="#121b05" d="M 232.5,152.5 C 234.5,152.5 235.5,153.5 235.5,155.5C 234.833,155.167 234.167,154.833 233.5,154.5C 233.167,153.833 232.833,153.167 232.5,152.5 Z"/></g>
<g><path style="opacity:1" fill="#769a38" d="M 145.5,152.5 C 147.833,152.5 150.167,152.5 152.5,152.5C 152.5,153.5 152.5,154.5 152.5,155.5C 147.454,160.543 142.788,165.876 138.5,171.5C 136.118,170.649 134.118,169.316 132.5,167.5C 134.859,164.149 137.192,160.815 139.5,157.5C 141.5,155.833 143.5,154.167 145.5,152.5 Z"/></g>
<g><path style="opacity:1" fill="#152010" d="M 236.5,156.5 C 238.5,156.5 239.5,157.5 239.5,159.5C 238.167,158.833 237.167,157.833 236.5,156.5 Z"/></g>
<g><path style="opacity:1" fill="#769e36" d="M 186.5,154.5 C 186.5,157.5 186.5,160.5 186.5,163.5C 175.91,170.294 164.91,176.294 153.5,181.5C 150.176,178.878 146.51,176.711 142.5,175C 141.941,174.275 141.608,173.442 141.5,172.5C 144.79,164.877 150.124,159.211 157.5,155.5C 167.114,154.551 176.781,154.218 186.5,154.5 Z"/></g>
<g><path style="opacity:1" fill="#769d36" d="M 189.5,154.5 C 200.424,153.764 211.09,154.764 221.5,157.5C 227.405,160.906 231.739,165.74 234.5,172C 231.547,174.816 228.213,177.149 224.5,179C 223.748,179.671 223.414,180.504 223.5,181.5C 219.76,180.281 216.093,178.781 212.5,177C 205.135,171.984 197.468,167.484 189.5,163.5C 189.5,160.5 189.5,157.5 189.5,154.5 Z"/></g>
<g><path style="opacity:1" fill="#131f0a" d="M 239.5,159.5 C 241.262,160.262 242.262,161.596 242.5,163.5C 240.738,162.738 239.738,161.404 239.5,159.5 Z"/></g>
<g><path style="opacity:1" fill="#749836" d="M 233.5,154.5 C 234.167,154.833 234.833,155.167 235.5,155.5C 236.167,155.5 236.5,155.833 236.5,156.5C 237.167,157.833 238.167,158.833 239.5,159.5C 239.738,161.404 240.738,162.738 242.5,163.5C 242.519,167.636 240.519,169.803 236.5,170C 232.305,163.973 227.305,158.806 221.5,154.5C 222.514,153.235 224.014,152.569 226,152.5C 228.775,152.409 231.275,153.076 233.5,154.5 Z"/></g>
<g><path style="opacity:1" fill="#162509" d="M 216.5,151.5 C 218.332,152.248 219.999,153.248 221.5,154.5C 227.305,158.806 232.305,163.973 236.5,170C 240.519,169.803 242.519,167.636 242.5,163.5C 244.654,166.569 246.321,169.902 247.5,173.5C 246.833,172.833 246.167,172.167 245.5,171.5C 245.189,170.522 244.522,169.855 243.5,169.5C 241.023,170.146 239.356,171.646 238.5,174C 240.994,179.315 242.994,184.815 244.5,190.5C 245.331,196.479 245.997,202.479 246.5,208.5C 245.833,214.167 245.167,219.833 244.5,225.5C 244.5,223.5 244.5,221.5 244.5,219.5C 244.666,213.491 244.499,207.491 244,201.5C 243.758,197.57 242.925,193.903 241.5,190.5C 241.66,188.801 241.494,187.134 241,185.5C 239.607,181.512 237.773,177.846 235.5,174.5C 231.21,176.8 227.21,179.467 223.5,182.5C 223.5,182.167 223.5,181.833 223.5,181.5C 223.414,180.504 223.748,179.671 224.5,179C 228.213,177.149 231.547,174.816 234.5,172C 231.739,165.74 227.405,160.906 221.5,157.5C 219.424,155.416 217.09,153.749 214.5,152.5C 215.492,152.672 216.158,152.338 216.5,151.5 Z"/></g>
<g><path style="opacity:1" fill="#769b38" d="M 130.5,199.5 C 129.187,205.959 128.521,212.626 128.5,219.5C 126.142,219.747 124.142,219.081 122.5,217.5C 122.5,213.5 122.5,209.5 122.5,205.5C 123.695,198.317 124.862,190.983 126,183.5C 127.772,179.24 129.272,174.907 130.5,170.5C 133.502,170.998 135.835,172.498 137.5,175C 135.758,177.225 134.591,179.725 134,182.5C 132.355,188.079 131.188,193.746 130.5,199.5 Z"/></g>
<g><path style="opacity:1" fill="#5e7933" d="M 245.5,171.5 C 246.167,172.167 246.833,172.833 247.5,173.5C 248.404,174.209 248.737,175.209 248.5,176.5C 249.15,178.435 249.483,180.435 249.5,182.5C 246.81,179.453 245.476,175.787 245.5,171.5 Z"/></g>
<g><path style="opacity:1" fill="#769f34" d="M 147.5,180.5 C 147.577,181.75 148.244,182.583 149.5,183C 149.167,183.333 148.833,183.667 148.5,184C 149.738,183.923 150.738,184.089 151.5,184.5C 151.291,185.086 150.957,185.586 150.5,186C 151.802,190.582 152.469,195.415 152.5,200.5C 152.333,205.167 152.167,209.833 152,214.5C 151.667,209.167 151.333,203.833 151,198.5C 150.852,204.249 150.186,209.915 149,215.5C 148.945,213.115 147.778,211.781 145.5,211.5C 143.714,212.454 142.047,213.287 140.5,214C 141.535,212.493 141.368,210.993 140,209.5C 139.064,211.708 137.398,213.042 135,213.5C 134.5,205.841 134.334,198.174 134.5,190.5C 135.024,185.928 136.357,181.594 138.5,177.5C 142.126,176.473 145.126,177.473 147.5,180.5 Z"/></g>
<g><path style="opacity:1" fill="#16261a" d="M 248.5,176.5 C 257.061,185.233 264.728,194.733 271.5,205C 275.849,205.668 279.516,207.668 282.5,211C 286.048,212.941 289.714,214.607 293.5,216C 294.38,217.356 294.714,218.856 294.5,220.5C 294.167,220.5 293.833,220.5 293.5,220.5C 293.5,219.5 293.5,218.5 293.5,217.5C 286.671,216.419 281.004,213.252 276.5,208C 274.196,207.105 271.862,206.271 269.5,205.5C 264.577,197.742 259.077,190.409 253,183.5C 253.822,189.778 254.655,196.111 255.5,202.5C 256.392,212.134 256.725,221.801 256.5,231.5C 255.671,224.679 255.171,217.679 255,210.5C 254.827,216.348 254.327,222.015 253.5,227.5C 253.5,224.833 253.5,222.167 253.5,219.5C 253.494,209.431 252.828,199.431 251.5,189.5C 251.59,186.848 250.924,184.515 249.5,182.5C 249.483,180.435 249.15,178.435 248.5,176.5 Z"/></g>
<g><path style="opacity:1" fill="#3e541d" d="M 249.5,182.5 C 250.924,184.515 251.59,186.848 251.5,189.5C 250.076,187.485 249.41,185.152 249.5,182.5 Z"/></g>
<g><path style="opacity:1" fill="#769e34" d="M 241.5,190.5 C 243.024,200.076 243.691,209.742 243.5,219.5C 240.14,221.87 236.807,224.203 233.5,226.5C 230.008,227.161 226.842,228.494 224,230.5C 223.5,214.503 223.333,198.503 223.5,182.5C 227.21,179.467 231.21,176.8 235.5,174.5C 237.773,177.846 239.607,181.512 241,185.5C 241.494,187.134 241.66,188.801 241.5,190.5 Z"/></g>
<g><path style="opacity:1" fill="#708f3a" d="M 247.5,212.5 C 247.167,212.5 246.833,212.5 246.5,212.5C 246.5,211.167 246.5,209.833 246.5,208.5C 245.997,202.479 245.331,196.479 244.5,190.5C 245.222,190.082 245.722,189.416 246,188.5C 246.73,196.49 247.23,204.49 247.5,212.5 Z"/></g>
<g><path style="opacity:1" fill="#769e37" d="M 245.5,171.5 C 245.476,175.787 246.81,179.453 249.5,182.5C 249.41,185.152 250.076,187.485 251.5,189.5C 252.828,199.431 253.494,209.431 253.5,219.5C 251.5,219.5 249.5,219.5 247.5,219.5C 247.5,217.167 247.5,214.833 247.5,212.5C 247.23,204.49 246.73,196.49 246,188.5C 245.722,189.416 245.222,190.082 244.5,190.5C 242.994,184.815 240.994,179.315 238.5,174C 239.356,171.646 241.023,170.146 243.5,169.5C 244.522,169.855 245.189,170.522 245.5,171.5 Z"/></g>
<g><path style="opacity:1" fill="#17240b" d="M 163.5,149.5 C 163.5,150.167 163.833,150.5 164.5,150.5C 163.833,151.167 163.167,151.833 162.5,152.5C 160.326,152.75 158.659,153.75 157.5,155.5C 150.124,159.211 144.79,164.877 141.5,172.5C 141.608,173.442 141.941,174.275 142.5,175C 146.51,176.711 150.176,178.878 153.5,181.5C 152.833,181.5 152.5,181.833 152.5,182.5C 150.95,181.559 149.284,180.893 147.5,180.5C 145.126,177.473 142.126,176.473 138.5,177.5C 136.357,181.594 135.024,185.928 134.5,190.5C 133.383,194.295 132.717,198.295 132.5,202.5C 131.051,214.409 131.384,226.409 133.5,238.5C 132.566,239.568 132.232,240.901 132.5,242.5C 131.616,239.977 130.782,237.31 130,234.5C 129.473,222.824 129.639,211.157 130.5,199.5C 131.188,193.746 132.355,188.079 134,182.5C 134.591,179.725 135.758,177.225 137.5,175C 135.835,172.498 133.502,170.998 130.5,170.5C 129.272,174.907 127.772,179.24 126,183.5C 124.862,190.983 123.695,198.317 122.5,205.5C 122.802,202.941 122.468,200.607 121.5,198.5C 121.5,197.833 121.5,197.167 121.5,196.5C 122.389,191.993 123.389,187.493 124.5,183C 124.43,182.235 124.097,181.735 123.5,181.5C 127.121,175.856 130.288,169.856 133,163.5C 134.98,161.101 137.147,159.101 139.5,157.5C 137.192,160.815 134.859,164.149 132.5,167.5C 134.118,169.316 136.118,170.649 138.5,171.5C 142.788,165.876 147.454,160.543 152.5,155.5C 156.007,153.246 159.673,151.246 163.5,149.5 Z"/></g>
<g><path style="opacity:1" fill="#55a58f" d="M 293.5,220.5 C 293.167,220.5 292.833,220.5 292.5,220.5C 288.257,220.939 283.924,220.939 279.5,220.5C 279.263,221.791 279.596,222.791 280.5,223.5C 283.392,226.271 286.058,229.271 288.5,232.5C 288.209,233.649 287.376,234.316 286,234.5C 283.729,233.729 281.562,232.729 279.5,231.5C 278.584,231.543 277.917,231.876 277.5,232.5C 278.82,235.14 280.153,237.807 281.5,240.5C 281.67,241.822 281.337,242.989 280.5,244C 278.527,244.495 276.527,244.662 274.5,244.5C 273.863,240.871 271.863,238.538 268.5,237.5C 268.5,240.167 268.5,242.833 268.5,245.5C 266.61,245.703 265.11,245.037 264,243.5C 263.946,240.139 262.946,237.139 261,234.5C 258.774,228.689 258.108,222.689 259,216.5C 260.167,215.333 261.333,214.167 262.5,213C 261.376,212.751 260.376,212.251 259.5,211.5C 258.906,208.043 257.573,205.043 255.5,202.5C 254.655,196.111 253.822,189.778 253,183.5C 259.077,190.409 264.577,197.742 269.5,205.5C 271.862,206.271 274.196,207.105 276.5,208C 281.004,213.252 286.671,216.419 293.5,217.5C 293.5,218.5 293.5,219.5 293.5,220.5 Z"/></g>
<g><path style="opacity:1" fill="#3e6f5f" d="M 121.5,196.5 C 121.5,197.167 121.5,197.833 121.5,198.5C 120.833,209.5 120.167,220.5 119.5,231.5C 118.833,232.5 118.167,233.5 117.5,234.5C 119.321,228.648 119.821,222.648 119,216.5C 117.167,213.333 114.667,210.833 111.5,209C 115.766,205.569 119.099,201.402 121.5,196.5 Z"/></g>
<g><path style="opacity:1" fill="#136575" d="M 220.5,230.5 C 220.5,230.833 220.5,231.167 220.5,231.5C 217.417,231.916 214.417,232.583 211.5,233.5C 211.334,227.491 211.501,221.491 212,215.5C 212.048,218.329 213.048,220.663 215,222.5C 217.223,220.277 218.556,217.611 219,214.5C 219.667,206.167 219.667,197.833 219,189.5C 218.722,188.584 218.222,187.918 217.5,187.5C 217.489,185.983 216.823,184.816 215.5,184C 207.005,179.587 198.672,174.92 190.5,170C 189.167,169.333 187.833,169.333 186.5,170C 177.756,174.454 169.256,179.287 161,184.5C 159.911,188.048 159.411,191.715 159.5,195.5C 159.517,198.913 160.184,201.913 161.5,204.5C 162.327,199.349 162.827,194.016 163,188.5C 163.333,192.5 163.667,196.5 164,200.5C 165.018,203.642 166.185,203.976 167.5,201.5C 170.29,204.592 173.624,205.258 177.5,203.5C 179.621,203.325 181.621,203.659 183.5,204.5C 184.5,204.5 185.5,204.5 186.5,204.5C 186.201,202.396 186.534,200.396 187.5,198.5C 189.278,200.264 190.611,202.264 191.5,204.5C 191.369,205.239 191.536,205.906 192,206.5C 194.391,205.398 194.891,206.064 193.5,208.5C 195.29,210.316 197.29,211.649 199.5,212.5C 195.973,214.272 193.307,216.938 191.5,220.5C 189.119,224.54 187.119,224.207 185.5,219.5C 182.388,215.903 178.555,213.236 174,211.5C 172.97,211.836 172.47,212.503 172.5,213.5C 171.504,213.586 170.671,213.252 170,212.5C 169.685,215.147 168.518,215.813 166.5,214.5C 166.047,221.118 166.047,227.784 166.5,234.5C 166.5,234.833 166.5,235.167 166.5,235.5C 165.504,235.414 164.671,235.748 164,236.5C 163.481,235.484 162.647,234.818 161.5,234.5C 159.944,235.547 158.277,236.214 156.5,236.5C 156.167,218.488 156.5,200.488 157.5,182.5C 167.71,176.563 178.043,170.896 188.5,165.5C 198.957,170.896 209.29,176.563 219.5,182.5C 220.499,198.486 220.833,214.486 220.5,230.5 Z"/></g>
<g><path style="opacity:1" fill="#1a6c7d" d="M 217.5,187.5 C 218.222,187.918 218.722,188.584 219,189.5C 219.667,197.833 219.667,206.167 219,214.5C 218.556,217.611 217.223,220.277 215,222.5C 213.048,220.663 212.048,218.329 212,215.5C 211.501,221.491 211.334,227.491 211.5,233.5C 211.167,233.5 210.833,233.5 210.5,233.5C 210.666,227.158 210.5,220.825 210,214.5C 209.586,214.957 209.086,215.291 208.5,215.5C 207.833,214.5 207.167,213.5 206.5,212.5C 205.199,213.478 204.032,213.145 203,211.5C 201.862,211.989 200.695,212.322 199.5,212.5C 197.29,211.649 195.29,210.316 193.5,208.5C 194.891,206.064 194.391,205.398 192,206.5C 191.536,205.906 191.369,205.239 191.5,204.5C 192.978,204.762 194.311,204.429 195.5,203.5C 193.5,200.833 191.5,198.167 189.5,195.5C 191.412,193.343 193.079,191.009 194.5,188.5C 193.635,187.417 192.635,187.251 191.5,188C 190.044,189.745 188.711,191.578 187.5,193.5C 186.534,191.604 186.201,189.604 186.5,187.5C 185.167,187.5 183.833,187.5 182.5,187.5C 183.354,193.121 183.687,198.788 183.5,204.5C 181.621,203.659 179.621,203.325 177.5,203.5C 178.942,202.18 179.608,200.514 179.5,198.5C 176.99,199.783 174.323,200.783 171.5,201.5C 171.5,197.833 171.5,194.167 171.5,190.5C 174.167,191.167 176.833,191.833 179.5,192.5C 179.703,190.61 179.037,189.11 177.5,188C 174.007,186.996 170.841,187.496 168,189.5C 167.501,193.486 167.334,197.486 167.5,201.5C 166.185,203.976 165.018,203.642 164,200.5C 163.667,196.5 163.333,192.5 163,188.5C 162.827,194.016 162.327,199.349 161.5,204.5C 161.334,198.491 161.501,192.491 162,186.5C 169.621,181.607 177.454,177.107 185.5,173C 187.5,172.333 189.5,172.333 191.5,173C 199.333,177.5 207.167,182 215,186.5C 215.17,192.528 215.67,198.528 216.5,204.5C 217.495,198.872 217.829,193.206 217.5,187.5 Z"/></g>
<g><path style="opacity:1" fill="#142923" d="M 123.5,181.5 C 117.139,189.713 111.139,198.213 105.5,207C 103.5,207.333 101.5,207.667 99.5,208C 95.7213,211.553 91.3879,214.053 86.5,215.5C 91.1206,212.844 95.4539,209.677 99.5,206C 101.167,205.667 102.833,205.333 104.5,205C 109.333,198.167 114.167,191.333 119,184.5C 120.615,183.614 122.115,182.614 123.5,181.5 Z"/></g>
<g><path style="opacity:1" fill="#749832" d="M 147.5,180.5 C 149.284,180.893 150.95,181.559 152.5,182.5C 152.5,183.167 152.833,183.5 153.5,183.5C 153.5,199.833 153.5,216.167 153.5,232.5C 145.546,232.045 138.713,229.045 133,223.5C 132.5,216.508 132.334,209.508 132.5,202.5C 132.717,198.295 133.383,194.295 134.5,190.5C 134.334,198.174 134.5,205.841 135,213.5C 137.398,213.042 139.064,211.708 140,209.5C 141.368,210.993 141.535,212.493 140.5,214C 142.047,213.287 143.714,212.454 145.5,211.5C 147.778,211.781 148.945,213.115 149,215.5C 150.186,209.915 150.852,204.249 151,198.5C 151.333,203.833 151.667,209.167 152,214.5C 152.167,209.833 152.333,205.167 152.5,200.5C 152.469,195.415 151.802,190.582 150.5,186C 150.957,185.586 151.291,185.086 151.5,184.5C 150.738,184.089 149.738,183.923 148.5,184C 148.833,183.667 149.167,183.333 149.5,183C 148.244,182.583 147.577,181.75 147.5,180.5 Z"/></g>
<g><path style="opacity:1" fill="#477365" d="M 255.5,202.5 C 257.573,205.043 258.906,208.043 259.5,211.5C 260.376,212.251 261.376,212.751 262.5,213C 261.333,214.167 260.167,215.333 259,216.5C 258.108,222.689 258.774,228.689 261,234.5C 262.946,237.139 263.946,240.139 264,243.5C 265.11,245.037 266.61,245.703 268.5,245.5C 266.44,246.811 264.274,246.811 262,245.5C 260.608,240.869 258.775,236.536 256.5,232.5C 256.5,232.167 256.5,231.833 256.5,231.5C 256.725,221.801 256.392,212.134 255.5,202.5 Z"/></g>
<g><path style="opacity:1" fill="#69823d" d="M 241.5,190.5 C 242.925,193.903 243.758,197.57 244,201.5C 244.499,207.491 244.666,213.491 244.5,219.5C 244.167,219.5 243.833,219.5 243.5,219.5C 243.691,209.742 243.024,200.076 241.5,190.5 Z"/></g>
<g><path style="opacity:1" fill="#0d1107" d="M 256.5,231.5 C 256.5,231.833 256.5,232.167 256.5,232.5C 256.218,233.778 255.551,234.778 254.5,235.5C 253.992,239.736 252.992,243.736 251.5,247.5C 251.616,244.14 251.949,240.807 252.5,237.5C 252.616,234.14 252.949,230.807 253.5,227.5C 254.327,222.015 254.827,216.348 255,210.5C 255.171,217.679 255.671,224.679 256.5,231.5 Z"/></g>
<g><path style="opacity:1" fill="#54a38e" d="M 123.5,181.5 C 124.097,181.735 124.43,182.235 124.5,183C 123.389,187.493 122.389,191.993 121.5,196.5C 119.099,201.402 115.766,205.569 111.5,209C 114.667,210.833 117.167,213.333 119,216.5C 119.821,222.648 119.321,228.648 117.5,234.5C 115.526,236.428 114.026,238.761 113,241.5C 111.89,243.037 110.39,243.703 108.5,243.5C 108.795,241.265 108.461,239.265 107.5,237.5C 105.62,237.229 104.287,237.896 103.5,239.5C 101.866,240.207 100.532,241.373 99.5,243C 97.5643,243.813 95.5643,244.313 93.5,244.5C 95.3163,242.589 96.483,240.256 97,237.5C 98.3988,236.773 99.8988,236.273 101.5,236C 99.8446,234.556 99.178,232.722 99.5,230.5C 96.8333,230.833 94.1667,231.167 91.5,231.5C 91.8333,234.5 90.5,235.833 87.5,235.5C 87.5,234.167 87.5,232.833 87.5,231.5C 90.5703,228.436 93.2369,225.103 95.5,221.5C 95.2089,220.351 94.3756,219.684 93,219.5C 89.6642,220.973 86.1642,221.64 82.5,221.5C 81.933,218.089 83.2663,216.089 86.5,215.5C 91.3879,214.053 95.7213,211.553 99.5,208C 101.5,207.667 103.5,207.333 105.5,207C 111.139,198.213 117.139,189.713 123.5,181.5 Z"/></g>
<g><path style="opacity:1" fill="#a2cad2" d="M 210.5,233.5 C 209.833,228.319 209.167,222.985 208.5,217.5C 207.893,217.624 207.56,217.957 207.5,218.5C 202.756,219.917 198.089,221.584 193.5,223.5C 193.715,221.821 193.048,220.821 191.5,220.5C 193.307,216.938 195.973,214.272 199.5,212.5C 200.695,212.322 201.862,211.989 203,211.5C 204.032,213.145 205.199,213.478 206.5,212.5C 207.167,213.5 207.833,214.5 208.5,215.5C 209.086,215.291 209.586,214.957 210,214.5C 210.5,220.825 210.666,227.158 210.5,233.5 Z"/></g>
<g><path style="opacity:1" fill="#487969" d="M 95.5,221.5 C 92.5123,222.161 89.5123,222.828 86.5,223.5C 84.6455,223.66 83.3121,222.993 82.5,221.5C 86.1642,221.64 89.6642,220.973 93,219.5C 94.3756,219.684 95.2089,220.351 95.5,221.5 Z"/></g>
<g><path style="opacity:1" fill="#477868" d="M 292.5,220.5 C 292.5,221.5 292.5,222.5 292.5,223.5C 288.738,223.348 285.072,222.681 281.5,221.5C 280.702,221.957 280.369,222.624 280.5,223.5C 279.596,222.791 279.263,221.791 279.5,220.5C 283.924,220.939 288.257,220.939 292.5,220.5 Z"/></g>
<g><path style="opacity:1" fill="#186071" d="M 187.5,235.5 C 185.167,235.5 182.833,235.5 180.5,235.5C 180.5,233.833 180.5,232.167 180.5,230.5C 181.833,230.5 183.167,230.5 184.5,230.5C 184.768,228.901 184.434,227.568 183.5,226.5C 179.833,226.5 176.167,226.5 172.5,226.5C 172.157,228.483 172.824,229.817 174.5,230.5C 175.451,231.919 175.784,233.585 175.5,235.5C 173.167,235.5 170.833,235.5 168.5,235.5C 168.817,231.298 168.483,227.298 167.5,223.5C 167.338,221.473 167.505,219.473 168,217.5C 172.666,219.704 177.5,221.537 182.5,223C 184.09,224.046 185.59,225.213 187,226.5C 187.498,229.482 187.665,232.482 187.5,235.5 Z"/></g>
<g><path style="opacity:1" fill="#bddbe1" d="M 172.5,213.5 C 173.167,214.167 173.833,214.833 174.5,215.5C 176.421,216.363 178.421,217.029 180.5,217.5C 177.577,218.271 174.744,217.604 172,215.5C 171.552,217.409 172.385,218.576 174.5,219C 177.234,219.21 179.734,220.044 182,221.5C 182.71,220.027 183.876,219.36 185.5,219.5C 187.119,224.207 189.119,224.54 191.5,220.5C 193.048,220.821 193.715,221.821 193.5,223.5C 192.206,224.29 191.039,225.29 190,226.5C 189.502,229.482 189.335,232.482 189.5,235.5C 188.833,235.5 188.167,235.5 187.5,235.5C 187.665,232.482 187.498,229.482 187,226.5C 185.59,225.213 184.09,224.046 182.5,223C 177.5,221.537 172.666,219.704 168,217.5C 167.505,219.473 167.338,221.473 167.5,223.5C 167.815,227.371 167.482,231.038 166.5,234.5C 166.047,227.784 166.047,221.118 166.5,214.5C 168.518,215.813 169.685,215.147 170,212.5C 170.671,213.252 171.504,213.586 172.5,213.5 Z"/></g>
<g><path style="opacity:1" fill="#1c6372" d="M 207.5,218.5 C 208.488,223.64 208.821,228.974 208.5,234.5C 206.833,234.5 205.167,234.5 203.5,234.5C 201.745,234.202 200.412,232.702 199.5,230C 199.833,229 200.167,228 200.5,227C 198.19,226.503 195.857,226.337 193.5,226.5C 193.963,229.482 194.296,232.482 194.5,235.5C 192.833,235.5 191.167,235.5 189.5,235.5C 189.335,232.482 189.502,229.482 190,226.5C 191.039,225.29 192.206,224.29 193.5,223.5C 198.089,221.584 202.756,219.917 207.5,218.5 Z"/></g>
<g><path style="opacity:1" fill="#051913" d="M 186.5,163.5 C 186.833,163.5 187.167,163.5 187.5,163.5C 188.167,164.833 188.833,164.833 189.5,163.5C 197.468,167.484 205.135,171.984 212.5,177C 216.093,178.781 219.76,180.281 223.5,181.5C 223.5,181.833 223.5,182.167 223.5,182.5C 222.662,182.842 222.328,183.508 222.5,184.5C 221.833,199.833 221.167,215.167 220.5,230.5C 220.833,214.486 220.499,198.486 219.5,182.5C 209.29,176.563 198.957,170.896 188.5,165.5C 178.043,170.896 167.71,176.563 157.5,182.5C 156.5,200.488 156.167,218.488 156.5,236.5C 156.5,237.167 156.5,237.833 156.5,238.5C 155.039,239.686 153.705,239.686 152.5,238.5C 153.117,238.389 153.617,238.056 154,237.5C 154.829,219.329 154.662,201.329 153.5,183.5C 152.833,183.5 152.5,183.167 152.5,182.5C 152.5,181.833 152.833,181.5 153.5,181.5C 164.91,176.294 175.91,170.294 186.5,163.5 Z"/></g>
<g><path style="opacity:1" fill="#527b81" d="M 204.5,215.5 C 205.774,216.189 205.774,217.023 204.5,218C 202.179,218.837 199.845,219.17 197.5,219C 200.069,218.102 202.402,216.935 204.5,215.5 Z"/></g>
<g><path style="opacity:1" fill="#366e75" d="M 200.5,213.5 C 202.549,213.706 202.883,214.539 201.5,216C 200.167,216.667 198.833,216.667 197.5,216C 198.942,215.623 199.942,214.79 200.5,213.5 Z"/></g>
<g><path style="opacity:1" fill="#87b2bc" d="M 185.5,219.5 C 183.876,219.36 182.71,220.027 182,221.5C 179.734,220.044 177.234,219.21 174.5,219C 172.385,218.576 171.552,217.409 172,215.5C 174.744,217.604 177.577,218.271 180.5,217.5C 179,215.821 177.167,214.488 175,213.5C 174.536,214.094 174.369,214.761 174.5,215.5C 173.833,214.833 173.167,214.167 172.5,213.5C 172.47,212.503 172.97,211.836 174,211.5C 178.555,213.236 182.388,215.903 185.5,219.5 Z"/></g>
<g><path style="opacity:1" fill="#3f6c74" d="M 180.5,217.5 C 178.421,217.029 176.421,216.363 174.5,215.5C 174.369,214.761 174.536,214.094 175,213.5C 177.167,214.488 179,215.821 180.5,217.5 Z"/></g>
<g><path style="opacity:1" fill="#9ec9d7" d="M 186.5,210.5 C 191.328,210.385 192.661,212.552 190.5,217C 184.738,217.418 183.404,215.251 186.5,210.5 Z"/></g>
<g><path style="opacity:1" fill="#276064" d="M 187.5,212.5 C 190.674,212.952 191.007,213.952 188.5,215.5C 186.481,214.867 186.147,213.867 187.5,212.5 Z"/></g>
<g><path style="opacity:1" fill="#bce1e8" d="M 217.5,187.5 C 217.829,193.206 217.495,198.872 216.5,204.5C 215.67,198.528 215.17,192.528 215,186.5C 207.167,182 199.333,177.5 191.5,173C 189.5,172.333 187.5,172.333 185.5,173C 177.454,177.107 169.621,181.607 162,186.5C 161.501,192.491 161.334,198.491 161.5,204.5C 160.184,201.913 159.517,198.913 159.5,195.5C 159.411,191.715 159.911,188.048 161,184.5C 169.256,179.287 177.756,174.454 186.5,170C 187.833,169.333 189.167,169.333 190.5,170C 198.672,174.92 207.005,179.587 215.5,184C 216.823,184.816 217.489,185.983 217.5,187.5 Z"/></g>
<g><path style="opacity:1" fill="#d1edf0" d="M 197.5,187.5 C 198.833,187.5 200.167,187.5 201.5,187.5C 201.5,192.167 201.5,196.833 201.5,201.5C 203.144,201.714 204.644,201.38 206,200.5C 206.499,196.179 206.666,191.846 206.5,187.5C 207.5,187.5 208.5,187.5 209.5,187.5C 209.666,192.179 209.499,196.845 209,201.5C 205.492,205.436 202.159,205.436 199,201.5C 198.649,196.802 198.149,192.136 197.5,187.5 Z"/></g>
<g><path style="opacity:1" fill="#d3e9ee" d="M 191.5,204.5 C 190.611,202.264 189.278,200.264 187.5,198.5C 186.534,200.396 186.201,202.396 186.5,204.5C 185.5,204.5 184.5,204.5 183.5,204.5C 183.687,198.788 183.354,193.121 182.5,187.5C 183.833,187.5 185.167,187.5 186.5,187.5C 186.201,189.604 186.534,191.604 187.5,193.5C 188.711,191.578 190.044,189.745 191.5,188C 192.635,187.251 193.635,187.417 194.5,188.5C 193.079,191.009 191.412,193.343 189.5,195.5C 191.5,198.167 193.5,200.833 195.5,203.5C 194.311,204.429 192.978,204.762 191.5,204.5 Z"/></g>
<g><path style="opacity:1" fill="#bddfe3" d="M 177.5,203.5 C 173.624,205.258 170.29,204.592 167.5,201.5C 167.334,197.486 167.501,193.486 168,189.5C 170.841,187.496 174.007,186.996 177.5,188C 179.037,189.11 179.703,190.61 179.5,192.5C 176.833,191.833 174.167,191.167 171.5,190.5C 171.5,194.167 171.5,197.833 171.5,201.5C 174.323,200.783 176.99,199.783 179.5,198.5C 179.608,200.514 178.942,202.18 177.5,203.5 Z"/></g>
<g><path style="opacity:1" fill="#101d19" d="M 86.5,215.5 C 83.2663,216.089 81.933,218.089 82.5,221.5C 83.3121,222.993 84.6455,223.66 86.5,223.5C 89.5123,222.828 92.5123,222.161 95.5,221.5C 93.2369,225.103 90.5703,228.436 87.5,231.5C 86.2584,233.389 86.2584,235.389 87.5,237.5C 85.5159,237.516 84.5159,236.516 84.5,234.5C 85.68,230.981 87.68,227.981 90.5,225.5C 88.3284,225.324 85.9951,225.157 83.5,225C 80.0221,222.294 79.6888,219.294 82.5,216C 83.7932,215.51 85.1266,215.343 86.5,215.5 Z"/></g>
<g><path style="opacity:1" fill="#5d6827" d="M 246.5,212.5 C 246.833,212.5 247.167,212.5 247.5,212.5C 247.5,214.833 247.5,217.167 247.5,219.5C 249.5,219.5 251.5,219.5 253.5,219.5C 253.5,222.167 253.5,224.833 253.5,227.5C 252.949,230.807 252.616,234.14 252.5,237.5C 250.78,241.557 249.614,245.89 249,250.5C 248.667,250.833 248.333,251.167 248,251.5C 246.333,250.833 244.667,250.167 243,249.5C 243.469,242.474 244.469,235.474 246,228.5C 246.499,223.177 246.666,217.844 246.5,212.5 Z"/></g>
<g><path style="opacity:1" fill="#5e6924" d="M 132.5,202.5 C 132.334,209.508 132.5,216.508 133,223.5C 138.713,229.045 145.546,232.045 153.5,232.5C 153.631,233.376 153.298,234.043 152.5,234.5C 145.971,231.88 143.637,233.38 145.5,239C 143.82,239.352 142.82,240.852 142.5,243.5C 140.355,244.989 138.022,245.989 135.5,246.5C 135.037,243.779 134.371,241.112 133.5,238.5C 131.384,226.409 131.051,214.409 132.5,202.5 Z"/></g>
<g><path style="opacity:1" fill="#535f24" d="M 153.5,183.5 C 154.662,201.329 154.829,219.329 154,237.5C 153.617,238.056 153.117,238.389 152.5,238.5C 148.861,239.653 145.528,241.319 142.5,243.5C 142.82,240.852 143.82,239.352 145.5,239C 143.637,233.38 145.971,231.88 152.5,234.5C 153.298,234.043 153.631,233.376 153.5,232.5C 153.5,216.167 153.5,199.833 153.5,183.5 Z"/></g>
<g><path style="opacity:1" fill="#5a6623" d="M 223.5,182.5 C 223.333,198.503 223.5,214.503 224,230.5C 226.842,228.494 230.008,227.161 233.5,226.5C 236.807,224.203 240.14,221.87 243.5,219.5C 243.833,219.5 244.167,219.5 244.5,219.5C 244.5,221.5 244.5,223.5 244.5,225.5C 243.892,232.653 242.558,239.653 240.5,246.5C 234.85,243.849 229.184,241.182 223.5,238.5C 222.514,220.577 222.181,202.577 222.5,184.5C 222.328,183.508 222.662,182.842 223.5,182.5 Z"/></g>
<g><path style="opacity:1" fill="#528e7d" d="M 93.5,244.5 C 92.9569,244.44 92.6236,244.107 92.5,243.5C 94.0467,240.239 95.7134,237.072 97.5,234C 97.1667,233.5 96.8333,233 96.5,232.5C 94.079,234.934 91.4123,236.934 88.5,238.5C 87.8333,238.5 87.5,238.167 87.5,237.5C 86.2584,235.389 86.2584,233.389 87.5,231.5C 87.5,232.833 87.5,234.167 87.5,235.5C 90.5,235.833 91.8333,234.5 91.5,231.5C 94.1667,231.167 96.8333,230.833 99.5,230.5C 99.178,232.722 99.8446,234.556 101.5,236C 99.8988,236.273 98.3988,236.773 97,237.5C 96.483,240.256 95.3163,242.589 93.5,244.5 Z"/></g>
<g><path style="opacity:1" fill="#5b6625" d="M 130.5,199.5 C 129.639,211.157 129.473,222.824 130,234.5C 130.782,237.31 131.616,239.977 132.5,242.5C 134.701,247.288 133.201,250.288 128,251.5C 127.055,251.095 126.388,250.428 126,249.5C 123.1,239.035 121.933,228.368 122.5,217.5C 124.142,219.081 126.142,219.747 128.5,219.5C 128.521,212.626 129.187,205.959 130.5,199.5 Z"/></g>
<g><path style="opacity:1" fill="#456f63" d="M 277.5,232.5 C 277.917,231.876 278.584,231.543 279.5,231.5C 281.562,232.729 283.729,233.729 286,234.5C 287.376,234.316 288.209,233.649 288.5,232.5C 289.842,235.22 288.842,236.886 285.5,237.5C 282.822,235.816 280.156,234.15 277.5,232.5 Z"/></g>
<g><path style="opacity:1" fill="#0c1613" d="M 292.5,220.5 C 292.833,220.5 293.167,220.5 293.5,220.5C 293.833,220.5 294.167,220.5 294.5,220.5C 293.534,225.383 290.701,226.717 286,224.5C 287.885,227.616 289.718,230.95 291.5,234.5C 290.399,238.591 287.733,240.258 283.5,239.5C 285.278,246.228 282.611,249.061 275.5,248C 274.748,247.329 274.414,246.496 274.5,245.5C 276.738,246.537 279.071,246.703 281.5,246C 282.807,244.057 282.807,242.223 281.5,240.5C 280.153,237.807 278.82,235.14 277.5,232.5C 280.156,234.15 282.822,235.816 285.5,237.5C 288.842,236.886 289.842,235.22 288.5,232.5C 286.058,229.271 283.392,226.271 280.5,223.5C 280.369,222.624 280.702,221.957 281.5,221.5C 285.072,222.681 288.738,223.348 292.5,223.5C 292.5,222.5 292.5,221.5 292.5,220.5 Z"/></g>
<g><path style="opacity:1" fill="#151b0c" d="M 121.5,198.5 C 122.468,200.607 122.802,202.941 122.5,205.5C 122.5,209.5 122.5,213.5 122.5,217.5C 121.933,228.368 123.1,239.035 126,249.5C 126.388,250.428 127.055,251.095 128,251.5C 133.201,250.288 134.701,247.288 132.5,242.5C 132.232,240.901 132.566,239.568 133.5,238.5C 134.371,241.112 135.037,243.779 135.5,246.5C 138.022,245.989 140.355,244.989 142.5,243.5C 145.528,241.319 148.861,239.653 152.5,238.5C 153.705,239.686 155.039,239.686 156.5,238.5C 167,244.249 177.334,250.249 187.5,256.5C 187.5,256.833 187.5,257.167 187.5,257.5C 177.055,252.225 166.722,246.725 156.5,241C 154.833,240.333 153.167,240.333 151.5,241C 147.677,242.535 144.344,244.701 141.5,247.5C 139.365,247.147 138.032,247.98 137.5,250C 141.107,259.439 147.774,265.606 157.5,268.5C 158.833,269.5 160.167,270.5 161.5,271.5C 160.833,271.5 160.167,271.5 159.5,271.5C 147.844,268.345 139.344,261.345 134,250.5C 131.353,251.386 129.52,253.052 128.5,255.5C 129.804,259.44 131.637,263.107 134,266.5C 144.153,275.26 155.653,281.26 168.5,284.5C 168.5,284.833 168.5,285.167 168.5,285.5C 157.367,283.101 147.034,278.768 137.5,272.5C 136.438,274.022 135.771,275.688 135.5,277.5C 135.5,278.5 135.5,279.5 135.5,280.5C 134.833,279.5 134.167,278.5 133.5,277.5C 134.237,275.392 134.904,273.225 135.5,271C 127.817,260.661 123.15,248.994 121.5,236C 121.316,234.624 120.649,233.791 119.5,233.5C 119.5,232.833 119.5,232.167 119.5,231.5C 120.167,220.5 120.833,209.5 121.5,198.5 Z"/></g>
<g><path style="opacity:1" fill="#121d1a" d="M 119.5,231.5 C 119.5,232.167 119.5,232.833 119.5,233.5C 118.243,237.441 117.076,241.441 116,245.5C 113.441,248.349 110.274,249.183 106.5,248C 105.751,246.266 105.251,244.433 105,242.5C 100.333,250.218 95.4997,250.384 90.5,243C 91.1667,242 91.8333,241 92.5,240C 90.9419,239.79 89.6085,239.29 88.5,238.5C 91.4123,236.934 94.079,234.934 96.5,232.5C 96.8333,233 97.1667,233.5 97.5,234C 95.7134,237.072 94.0467,240.239 92.5,243.5C 92.6236,244.107 92.9569,244.44 93.5,244.5C 93.6107,245.117 93.944,245.617 94.5,246C 100.111,247.564 103.111,245.398 103.5,239.5C 104.287,237.896 105.62,237.229 107.5,237.5C 107.335,240.518 107.502,243.518 108,246.5C 109.388,247.554 110.888,247.72 112.5,247C 114.694,243.075 116.36,238.908 117.5,234.5C 118.167,233.5 118.833,232.5 119.5,231.5 Z"/></g>
<g><path style="opacity:1" fill="#497367" d="M 103.5,239.5 C 103.111,245.398 100.111,247.564 94.5,246C 93.944,245.617 93.6107,245.117 93.5,244.5C 95.5643,244.313 97.5643,243.813 99.5,243C 100.532,241.373 101.866,240.207 103.5,239.5 Z"/></g>
<g><path style="opacity:1" fill="#89949c" d="M 207.5,218.5 C 207.56,217.957 207.893,217.624 208.5,217.5C 209.167,222.985 209.833,228.319 210.5,233.5C 210.896,236.044 210.229,238.211 208.5,240C 201.218,241.924 194.551,245.091 188.5,249.5C 183.354,245.93 177.688,243.43 171.5,242C 168.466,240.809 166.799,238.642 166.5,235.5C 166.5,235.167 166.5,234.833 166.5,234.5C 167.482,231.038 167.815,227.371 167.5,223.5C 168.483,227.298 168.817,231.298 168.5,235.5C 168.859,237.371 169.859,238.871 171.5,240C 177.043,241.399 182.21,243.566 187,246.5C 187.499,242.848 187.665,239.182 187.5,235.5C 188.167,235.5 188.833,235.5 189.5,235.5C 189.335,239.182 189.501,242.848 190,246.5C 194.955,242.846 200.455,240.346 206.5,239C 208.037,237.89 208.703,236.39 208.5,234.5C 208.821,228.974 208.488,223.64 207.5,218.5 Z"/></g>
<g><path style="opacity:1" fill="#5b7a83" d="M 203.5,235.5 C 203.631,236.239 203.464,236.906 203,237.5C 201.602,236.949 200.268,236.616 199,236.5C 196.76,239.293 195.26,238.96 194.5,235.5C 196.164,234.051 196.998,232.051 197,229.5C 198.669,231.169 199.502,233.169 199.5,235.5C 200.833,235.5 202.167,235.5 203.5,235.5 Z"/></g>
<g><path style="opacity:1" fill="#658893" d="M 183.5,226.5 C 184.434,227.568 184.768,228.901 184.5,230.5C 183.167,230.5 181.833,230.5 180.5,230.5C 180.5,232.167 180.5,233.833 180.5,235.5C 180.5,236.5 180.5,237.5 180.5,238.5C 178.833,238.5 177.167,238.5 175.5,238.5C 175.5,237.5 175.5,236.5 175.5,235.5C 175.784,233.585 175.451,231.919 174.5,230.5C 174.56,229.957 174.893,229.624 175.5,229.5C 176.48,232.086 176.813,234.753 176.5,237.5C 177.5,237.5 178.5,237.5 179.5,237.5C 179.5,234.833 179.5,232.167 179.5,229.5C 180.833,229.5 182.167,229.5 183.5,229.5C 183.5,228.5 183.5,227.5 183.5,226.5 Z"/></g>
<g><path style="opacity:1" fill="#7ba8b3" d="M 203.5,234.5 C 203.5,234.833 203.5,235.167 203.5,235.5C 202.167,235.5 200.833,235.5 199.5,235.5C 199.502,233.169 198.669,231.169 197,229.5C 196.998,232.051 196.164,234.051 194.5,235.5C 194.296,232.482 193.963,229.482 193.5,226.5C 195.857,226.337 198.19,226.503 200.5,227C 200.167,228 199.833,229 199.5,230C 200.412,232.702 201.745,234.202 203.5,234.5 Z"/></g>
<g><path style="opacity:1" fill="#92bbc7" d="M 201.5,226.5 C 202.978,226.238 204.311,226.571 205.5,227.5C 204.923,229.55 203.59,230.55 201.5,230.5C 201.5,229.167 201.5,227.833 201.5,226.5 Z"/></g>
<g><path style="opacity:1" fill="#d3e0e3" d="M 183.5,226.5 C 183.5,227.5 183.5,228.5 183.5,229.5C 182.167,229.5 180.833,229.5 179.5,229.5C 179.5,232.167 179.5,234.833 179.5,237.5C 178.5,237.5 177.5,237.5 176.5,237.5C 176.813,234.753 176.48,232.086 175.5,229.5C 174.893,229.624 174.56,229.957 174.5,230.5C 172.824,229.817 172.157,228.483 172.5,226.5C 176.167,226.5 179.833,226.5 183.5,226.5 Z"/></g>
<g><path style="opacity:1" fill="#45695e" d="M 117.5,234.5 C 116.36,238.908 114.694,243.075 112.5,247C 110.888,247.72 109.388,247.554 108,246.5C 107.502,243.518 107.335,240.518 107.5,237.5C 108.461,239.265 108.795,241.265 108.5,243.5C 110.39,243.703 111.89,243.037 113,241.5C 114.026,238.761 115.526,236.428 117.5,234.5 Z"/></g>
<g><path style="opacity:1" fill="#17211e" d="M 256.5,232.5 C 258.775,236.536 260.608,240.869 262,245.5C 264.274,246.811 266.44,246.811 268.5,245.5C 268.5,242.833 268.5,240.167 268.5,237.5C 271.863,238.538 273.863,240.871 274.5,244.5C 274.5,244.833 274.5,245.167 274.5,245.5C 272.665,244.878 271.498,243.544 271,241.5C 270.764,243.764 270.264,245.931 269.5,248C 266.773,248.818 264.106,248.652 261.5,247.5C 259.386,244.061 257.719,240.394 256.5,236.5C 256.043,235.702 255.376,235.369 254.5,235.5C 255.551,234.778 256.218,233.778 256.5,232.5 Z"/></g>
<g><path style="opacity:1" fill="#45645a" d="M 281.5,240.5 C 282.807,242.223 282.807,244.057 281.5,246C 279.071,246.703 276.738,246.537 274.5,245.5C 274.5,245.167 274.5,244.833 274.5,244.5C 276.527,244.662 278.527,244.495 280.5,244C 281.337,242.989 281.67,241.822 281.5,240.5 Z"/></g>
<g><path style="opacity:1" fill="#606c24" d="M 157.5,268.5 C 147.774,265.606 141.107,259.439 137.5,250C 138.032,247.98 139.365,247.147 141.5,247.5C 143.774,247.715 145.941,248.382 148,249.5C 149.226,249.355 150.393,249.022 151.5,248.5C 152.951,250.559 154.951,251.559 157.5,251.5C 157.286,247.743 158.286,247.076 160.5,249.5C 161.594,248.132 161.26,246.965 159.5,246C 161.695,245.288 163.362,245.955 164.5,248C 164.095,248.945 163.428,249.612 162.5,250C 164.167,250.333 165.833,250.667 167.5,251C 166.672,251.915 165.672,252.581 164.5,253C 166.424,254.267 168.09,254.267 169.5,253C 171.167,252.333 172.833,252.333 174.5,253C 178.016,255.258 181.682,257.258 185.5,259C 186.467,263.401 186.8,267.901 186.5,272.5C 181.821,272.666 177.155,272.499 172.5,272C 182.517,271.919 182.851,270.752 173.5,268.5C 171.25,269.459 168.916,270.125 166.5,270.5C 163.563,269.53 160.563,268.863 157.5,268.5 Z"/></g>
<g><path style="opacity:1" fill="#606d24" d="M 220.5,240.5 C 226.598,242.464 232.432,245.131 238,248.5C 237.981,251.244 237.314,253.911 236,256.5C 227.684,264.576 217.851,269.909 206.5,272.5C 201.077,272.524 195.743,273.19 190.5,274.5C 190.173,269.456 190.506,264.456 191.5,259.5C 192.934,258.412 193.934,257.078 194.5,255.5C 201.594,255.358 206.927,252.358 210.5,246.5C 213.466,244.012 216.799,242.012 220.5,240.5 Z"/></g>
<g><path style="opacity:1" fill="#585f2a" d="M 210.5,246.5 C 206.927,252.358 201.594,255.358 194.5,255.5C 199.502,251.997 204.835,248.997 210.5,246.5 Z"/></g>
<g><path style="opacity:1" fill="#0c424d" d="M 220.5,231.5 C 220.768,234.119 220.435,236.619 219.5,239C 208.651,244.59 197.984,250.423 187.5,256.5C 177.334,250.249 167,244.249 156.5,238.5C 156.5,237.833 156.5,237.167 156.5,236.5C 158.277,236.214 159.944,235.547 161.5,234.5C 162.647,234.818 163.481,235.484 164,236.5C 164.671,235.748 165.504,235.414 166.5,235.5C 166.799,238.642 168.466,240.809 171.5,242C 177.688,243.43 183.354,245.93 188.5,249.5C 194.551,245.091 201.218,241.924 208.5,240C 210.229,238.211 210.896,236.044 210.5,233.5C 210.833,233.5 211.167,233.5 211.5,233.5C 214.417,232.583 217.417,231.916 220.5,231.5 Z"/></g>
<g><path style="opacity:1" fill="#13414d" d="M 203.5,234.5 C 205.167,234.5 206.833,234.5 208.5,234.5C 208.703,236.39 208.037,237.89 206.5,239C 200.455,240.346 194.955,242.846 190,246.5C 189.501,242.848 189.335,239.182 189.5,235.5C 191.167,235.5 192.833,235.5 194.5,235.5C 195.26,238.96 196.76,239.293 199,236.5C 200.268,236.616 201.602,236.949 203,237.5C 203.464,236.906 203.631,236.239 203.5,235.5C 203.5,235.167 203.5,234.833 203.5,234.5 Z"/></g>
<g><path style="opacity:1" fill="#12444f" d="M 168.5,235.5 C 170.833,235.5 173.167,235.5 175.5,235.5C 175.5,236.5 175.5,237.5 175.5,238.5C 177.167,238.5 178.833,238.5 180.5,238.5C 180.5,237.5 180.5,236.5 180.5,235.5C 182.833,235.5 185.167,235.5 187.5,235.5C 187.665,239.182 187.499,242.848 187,246.5C 182.21,243.566 177.043,241.399 171.5,240C 169.859,238.871 168.859,237.371 168.5,235.5 Z"/></g>
<g><path style="opacity:1" fill="#191d0b" d="M 246.5,208.5 C 246.5,209.833 246.5,211.167 246.5,212.5C 246.666,217.844 246.499,223.177 246,228.5C 244.469,235.474 243.469,242.474 243,249.5C 244.667,250.167 246.333,250.833 248,251.5C 248.333,251.167 248.667,250.833 249,250.5C 249.614,245.89 250.78,241.557 252.5,237.5C 251.949,240.807 251.616,244.14 251.5,247.5C 250.173,253.314 248.34,258.981 246,264.5C 244.296,266.373 242.463,268.04 240.5,269.5C 239.833,269.5 239.167,269.5 238.5,269.5C 242.337,265.689 245.337,261.189 247.5,256C 246.198,251.997 243.698,250.831 240,252.5C 238.014,257.496 234.847,261.663 230.5,265C 222.365,269.07 214.032,272.57 205.5,275.5C 204.833,275.5 204.167,275.5 203.5,275.5C 203.158,274.662 202.492,274.328 201.5,274.5C 203.167,273.833 204.833,273.167 206.5,272.5C 217.851,269.909 227.684,264.576 236,256.5C 237.314,253.911 237.981,251.244 238,248.5C 232.432,245.131 226.598,242.464 220.5,240.5C 221.5,239.833 222.5,239.167 223.5,238.5C 229.184,241.182 234.85,243.849 240.5,246.5C 242.558,239.653 243.892,232.653 244.5,225.5C 245.167,219.833 245.833,214.167 246.5,208.5 Z"/></g>
<g><path style="opacity:1" fill="#101710" d="M 222.5,184.5 C 222.181,202.577 222.514,220.577 223.5,238.5C 222.5,239.167 221.5,239.833 220.5,240.5C 216.799,242.012 213.466,244.012 210.5,246.5C 204.835,248.997 199.502,251.997 194.5,255.5C 192.83,255.751 191.33,256.418 190,257.5C 189.501,263.491 189.334,269.491 189.5,275.5C 193.534,275.495 197.534,275.162 201.5,274.5C 202.492,274.328 203.158,274.662 203.5,275.5C 199.215,276.208 194.882,276.708 190.5,277C 189.556,279.719 189.223,282.552 189.5,285.5C 193.514,285.666 197.514,285.499 201.5,285C 202.737,284.768 203.737,284.268 204.5,283.5C 210.121,283.41 215.455,282.243 220.5,280C 224.951,277.373 229.618,275.04 234.5,273C 235.705,271.624 237.038,270.458 238.5,269.5C 238.5,270.5 238.5,271.5 238.5,272.5C 228.926,278.582 218.592,282.916 207.5,285.5C 210.5,300.666 212,315.999 212,331.5C 216.81,334.102 221.976,335.102 227.5,334.5C 241.509,337.26 255.509,337.093 269.5,334C 271.158,333.275 271.658,332.108 271,330.5C 269.64,327.977 267.807,325.977 265.5,324.5C 270.019,325.521 272.686,328.354 273.5,333C 272.023,335.148 270.023,336.482 267.5,337C 254.5,337.667 241.5,337.667 228.5,337C 222.288,336.521 216.288,335.188 210.5,333C 210.92,317.662 209.087,302.496 205,287.5C 195.249,287.802 185.416,287.469 175.5,286.5C 173.571,286.54 171.738,286.873 170,287.5C 166.622,302.312 164.789,317.312 164.5,332.5C 160.222,335.092 155.555,336.592 150.5,337C 136.167,337.667 121.833,337.667 107.5,337C 104.228,336.563 102.561,334.73 102.5,331.5C 103.167,332.167 103.833,332.833 104.5,333.5C 105.78,334.931 107.447,335.598 109.5,335.5C 125.403,336.971 141.403,336.471 157.5,334C 159.459,333.069 161.459,332.236 163.5,331.5C 163.739,323.54 163.906,315.54 164,307.5C 165.695,300.194 167.195,292.86 168.5,285.5C 168.5,285.167 168.5,284.833 168.5,284.5C 174.822,285.277 181.155,285.444 187.5,285C 188.814,282.395 188.814,279.895 187.5,277.5C 184.359,276.679 181.025,276.179 177.5,276C 181.025,275.821 184.359,275.321 187.5,274.5C 187.5,268.833 187.5,263.167 187.5,257.5C 187.5,257.167 187.5,256.833 187.5,256.5C 197.984,250.423 208.651,244.59 219.5,239C 220.435,236.619 220.768,234.119 220.5,231.5C 220.5,231.167 220.5,230.833 220.5,230.5C 221.167,215.167 221.833,199.833 222.5,184.5 Z"/></g>
<g><path style="opacity:1" fill="#606d26" d="M 159.5,271.5 C 168.149,276.148 177.482,278.148 187.5,277.5C 188.814,279.895 188.814,282.395 187.5,285C 181.155,285.444 174.822,285.277 168.5,284.5C 155.653,281.26 144.153,275.26 134,266.5C 131.637,263.107 129.804,259.44 128.5,255.5C 129.52,253.052 131.353,251.386 134,250.5C 139.344,261.345 147.844,268.345 159.5,271.5 Z"/></g>
<g><path style="opacity:1" fill="#51592b" d="M 194.5,255.5 C 193.934,257.078 192.934,258.412 191.5,259.5C 190.506,264.456 190.173,269.456 190.5,274.5C 195.743,273.19 201.077,272.524 206.5,272.5C 204.833,273.167 203.167,273.833 201.5,274.5C 197.534,275.162 193.534,275.495 189.5,275.5C 189.334,269.491 189.501,263.491 190,257.5C 191.33,256.418 192.83,255.751 194.5,255.5 Z"/></g>
<g><path style="opacity:1" fill="#5c6727" d="M 187.5,257.5 C 187.5,263.167 187.5,268.833 187.5,274.5C 182.821,274.666 178.155,274.499 173.5,274C 169.547,272.852 165.547,272.018 161.5,271.5C 160.167,270.5 158.833,269.5 157.5,268.5C 160.563,268.863 163.563,269.53 166.5,270.5C 168.916,270.125 171.25,269.459 173.5,268.5C 182.851,270.752 182.517,271.919 172.5,272C 177.155,272.499 181.821,272.666 186.5,272.5C 186.8,267.901 186.467,263.401 185.5,259C 181.682,257.258 178.016,255.258 174.5,253C 172.833,252.333 171.167,252.333 169.5,253C 168.09,254.267 166.424,254.267 164.5,253C 165.672,252.581 166.672,251.915 167.5,251C 165.833,250.667 164.167,250.333 162.5,250C 163.428,249.612 164.095,248.945 164.5,248C 163.362,245.955 161.695,245.288 159.5,246C 161.26,246.965 161.594,248.132 160.5,249.5C 158.286,247.076 157.286,247.743 157.5,251.5C 154.951,251.559 152.951,250.559 151.5,248.5C 150.393,249.022 149.226,249.355 148,249.5C 145.941,248.382 143.774,247.715 141.5,247.5C 144.344,244.701 147.677,242.535 151.5,241C 153.167,240.333 154.833,240.333 156.5,241C 166.722,246.725 177.055,252.225 187.5,257.5 Z"/></g>
<g><path style="opacity:1" fill="#20250b" d="M 159.5,271.5 C 160.167,271.5 160.833,271.5 161.5,271.5C 165.547,272.018 169.547,272.852 173.5,274C 178.155,274.499 182.821,274.666 187.5,274.5C 184.359,275.321 181.025,275.821 177.5,276C 181.025,276.179 184.359,276.679 187.5,277.5C 177.482,278.148 168.149,276.148 159.5,271.5 Z"/></g>
<g><path style="opacity:1" fill="#616e26" d="M 238.5,269.5 C 237.038,270.458 235.705,271.624 234.5,273C 229.618,275.04 224.951,277.373 220.5,280C 215.455,282.243 210.121,283.41 204.5,283.5C 201.5,283.5 198.5,283.5 195.5,283.5C 195.5,281.5 195.5,279.5 195.5,277.5C 198.187,277.664 200.854,277.497 203.5,277C 204.416,276.722 205.082,276.222 205.5,275.5C 214.032,272.57 222.365,269.07 230.5,265C 234.847,261.663 238.014,257.496 240,252.5C 243.698,250.831 246.198,251.997 247.5,256C 245.337,261.189 242.337,265.689 238.5,269.5 Z"/></g>
<g><path style="opacity:1" fill="#576228" d="M 203.5,275.5 C 204.167,275.5 204.833,275.5 205.5,275.5C 205.082,276.222 204.416,276.722 203.5,277C 200.854,277.497 198.187,277.664 195.5,277.5C 195.5,279.5 195.5,281.5 195.5,283.5C 198.5,283.5 201.5,283.5 204.5,283.5C 203.737,284.268 202.737,284.768 201.5,285C 197.514,285.499 193.514,285.666 189.5,285.5C 189.223,282.552 189.556,279.719 190.5,277C 194.882,276.708 199.215,276.208 203.5,275.5 Z"/></g>
<g><path style="opacity:1" fill="#539883" d="M 144.5,287.5 C 141.319,285.408 138.319,283.075 135.5,280.5C 135.5,279.5 135.5,278.5 135.5,277.5C 136.117,277.389 136.617,277.056 137,276.5C 140.233,279.733 143.4,282.9 146.5,286C 146.164,287.03 145.497,287.53 144.5,287.5 Z"/></g>
<g><path style="opacity:1" fill="#457162" d="M 168.5,285.5 C 167.195,292.86 165.695,300.194 164,307.5C 163.906,315.54 163.739,323.54 163.5,331.5C 161.459,332.236 159.459,333.069 157.5,334C 141.403,336.471 125.403,336.971 109.5,335.5C 117.684,335.826 125.684,335.492 133.5,334.5C 139.653,335.416 143.819,333.083 146,327.5C 146.308,317.801 145.474,308.468 143.5,299.5C 145.986,297.845 147.986,295.678 149.5,293C 147.863,291.172 146.197,289.339 144.5,287.5C 145.497,287.53 146.164,287.03 146.5,286C 143.4,282.9 140.233,279.733 137,276.5C 136.617,277.056 136.117,277.389 135.5,277.5C 135.771,275.688 136.438,274.022 137.5,272.5C 147.034,278.768 157.367,283.101 168.5,285.5 Z"/></g>
<g><path style="opacity:1" fill="#0d1c1d" d="M 133.5,277.5 C 134.167,278.5 134.833,279.5 135.5,280.5C 138.319,283.075 141.319,285.408 144.5,287.5C 146.197,289.339 147.863,291.172 149.5,293C 147.986,295.678 145.986,297.845 143.5,299.5C 141.932,300.473 140.265,300.64 138.5,300C 133.473,293.777 131.473,294.944 132.5,303.5C 131.834,307.684 131.167,312.018 130.5,316.5C 129.893,316.376 129.56,316.043 129.5,315.5C 130.293,303.02 131.626,290.354 133.5,277.5 Z"/></g>
<g><path style="opacity:1" fill="#095866" d="M 134.5,283.5 C 139.938,285.776 143.771,289.442 146,294.5C 144.27,295.74 142.437,296.74 140.5,297.5C 133.587,295.161 131.587,290.495 134.5,283.5 Z"/></g>
<g><path style="opacity:1" fill="#101c1e" d="M 238.5,269.5 C 239.167,269.5 239.833,269.5 240.5,269.5C 240.069,273.422 241.069,276.922 243.5,280C 242.919,280.893 242.585,281.893 242.5,283C 244.002,294.198 245.336,305.365 246.5,316.5C 244.94,314.844 243.94,312.844 243.5,310.5C 243.5,305.5 243.5,300.5 243.5,295.5C 240.409,296.543 237.409,297.877 234.5,299.5C 231.068,297.573 228.068,295.073 225.5,292C 229.267,287.608 233.934,284.442 239.5,282.5C 240.71,279.07 240.376,275.737 238.5,272.5C 238.5,271.5 238.5,270.5 238.5,269.5 Z"/></g>
<g><path style="opacity:1" fill="#0a5c6d" d="M 238.5,284.5 C 239.5,284.5 240.5,284.5 241.5,284.5C 241.665,287.518 241.498,290.518 241,293.5C 238.75,294.708 236.583,296.041 234.5,297.5C 232.329,295.828 230.329,293.995 228.5,292C 231.715,289.277 235.048,286.777 238.5,284.5 Z"/></g>
<g><path style="opacity:1" fill="#539f8a" d="M 239.5,282.5 C 233.934,284.442 229.267,287.608 225.5,292C 228.068,295.073 231.068,297.573 234.5,299.5C 237.409,297.877 240.409,296.543 243.5,295.5C 243.5,300.5 243.5,305.5 243.5,310.5C 243.5,312.833 243.5,315.167 243.5,317.5C 247.506,318.222 251.506,319.055 255.5,320C 258.706,321.769 262.039,323.269 265.5,324.5C 267.807,325.977 269.64,327.977 271,330.5C 271.658,332.108 271.158,333.275 269.5,334C 255.509,337.093 241.509,337.26 227.5,334.5C 224.423,333.245 222.59,330.912 222,327.5C 221.501,323.514 221.334,319.514 221.5,315.5C 221.5,307.833 221.5,300.167 221.5,292.5C 223.969,289.856 226.302,287.023 228.5,284C 231.663,281.584 234.996,279.418 238.5,277.5C 239.452,279.045 239.785,280.712 239.5,282.5 Z"/></g>
<g><path style="opacity:1" fill="#437463" d="M 221.5,292.5 C 221.5,300.167 221.5,307.833 221.5,315.5C 220.4,313.723 219.566,311.723 219,309.5C 217.796,313.716 217.13,318.049 217,322.5C 216.84,318.713 216.174,315.046 215,311.5C 214.781,312.938 214.281,314.271 213.5,315.5C 212.272,305.832 211.272,296.166 210.5,286.5C 213.206,286.425 215.873,286.092 218.5,285.5C 218.739,287.467 218.406,289.301 217.5,291C 218.745,291.791 220.078,292.291 221.5,292.5 Z"/></g>
<g><path style="opacity:1" fill="#539e89" d="M 143.5,299.5 C 145.474,308.468 146.308,317.801 146,327.5C 143.819,333.083 139.653,335.416 133.5,334.5C 134.605,332.7 133.939,331.533 131.5,331C 133.684,329.071 133.35,327.237 130.5,325.5C 132.423,324.692 134.423,324.192 136.5,324C 135.833,323.333 135.167,322.667 134.5,322C 135.8,317.55 135.8,313.05 134.5,308.5C 133.832,311.306 133.166,313.972 132.5,316.5C 132.5,312.167 132.5,307.833 132.5,303.5C 131.473,294.944 133.473,293.777 138.5,300C 140.265,300.64 141.932,300.473 143.5,299.5 Z"/></g>
<g><path style="opacity:1" fill="#172b26" d="M 132.5,303.5 C 132.5,307.833 132.5,312.167 132.5,316.5C 122.099,318.032 112.933,322.366 105,329.5C 104.51,330.793 104.343,332.127 104.5,333.5C 103.833,332.833 103.167,332.167 102.5,331.5C 104.101,328.23 106.434,325.563 109.5,323.5C 115.963,320.237 122.629,317.57 129.5,315.5C 129.56,316.043 129.893,316.376 130.5,316.5C 131.167,312.018 131.834,307.684 132.5,303.5 Z"/></g>
<g><path style="opacity:1" fill="#54a690" d="M 133.5,334.5 C 125.684,335.492 117.684,335.826 109.5,335.5C 107.447,335.598 105.78,334.931 104.5,333.5C 104.343,332.127 104.51,330.793 105,329.5C 112.933,322.366 122.099,318.032 132.5,316.5C 133.166,313.972 133.832,311.306 134.5,308.5C 135.8,313.05 135.8,317.55 134.5,322C 135.167,322.667 135.833,323.333 136.5,324C 134.423,324.192 132.423,324.692 130.5,325.5C 133.35,327.237 133.684,329.071 131.5,331C 133.939,331.533 134.605,332.7 133.5,334.5 Z"/></g>
<g><path style="opacity:1" fill="#1f342e" d="M 243.5,310.5 C 243.94,312.844 244.94,314.844 246.5,316.5C 253.947,316.729 260.28,319.395 265.5,324.5C 262.039,323.269 258.706,321.769 255.5,320C 251.506,319.055 247.506,318.222 243.5,317.5C 243.5,315.167 243.5,312.833 243.5,310.5 Z"/></g>
<g><path style="opacity:1" fill="#456d60" d="M 238.5,272.5 C 240.376,275.737 240.71,279.07 239.5,282.5C 239.785,280.712 239.452,279.045 238.5,277.5C 234.996,279.418 231.663,281.584 228.5,284C 226.302,287.023 223.969,289.856 221.5,292.5C 220.078,292.291 218.745,291.791 217.5,291C 218.406,289.301 218.739,287.467 218.5,285.5C 215.873,286.092 213.206,286.425 210.5,286.5C 211.272,296.166 212.272,305.832 213.5,315.5C 214.281,314.271 214.781,312.938 215,311.5C 216.174,315.046 216.84,318.713 217,322.5C 217.13,318.049 217.796,313.716 219,309.5C 219.566,311.723 220.4,313.723 221.5,315.5C 221.334,319.514 221.501,323.514 222,327.5C 222.59,330.912 224.423,333.245 227.5,334.5C 221.976,335.102 216.81,334.102 212,331.5C 212,315.999 210.5,300.666 207.5,285.5C 218.592,282.916 228.926,278.582 238.5,272.5 Z"/></g>
<g><path style="opacity:0.014" fill="#fefffe" d="M 142.5,343.5 C 145.304,342.362 148.304,342.195 151.5,343C 148.518,343.498 145.518,343.665 142.5,343.5 Z"/></g>
</svg>
